<svg xmlns="http://www.w3.org/2000/svg" width="199" height="180" stroke="none" stroke-linecap="round" stroke-linejoin="round" fill="#fff" fill-rule="nonzero"><path d="M54.1355 48.8759L41.1975 37.263l.0503 83.8813.1557 3.9159c.0629 1.8521.4535 3.9273 1.0791 6.0875l102.472 32.4272 25.6385-10.1822.0213-.0341L54.1292 48.8759z" fill="#00c4b3"/><path d="M42.485 131.1475h.0102a.815.815 0 0 0-.044-.1121c.0213.0419.0213.0838.0314.1121zm128.0829 22.245l-25.6385 10.1823-102.4569-32.4273c1.9548 6.7433 6.2913 14.3225 10.9493 18.4582l33.4234 29.8378 74.3738.0838 9.3175-26.1348z" fill="#22d3c5"/><g fill="#0075c9"><path d="M41.5483 37.2658L1.7067 91.2504c-3.3089 3.1695-1.6579 9.7111 3.6671 14.531l22.9991 20.8018 14.4566 4.5729c-.6257-2.1545-1.0187-4.2082-1.079-6.0874l-.1559-3.9159-.0463-83.8813z"/><path d="M145.7987 38.3455c-2.4068-.5471-4.7146-.8915-6.7936-.9447l-4.6204-.1518-93.1872.0192 129.4144 116.0934 11.3676-23.0028-36.1745-92.0076z"/></g><path d="M145.6804 38.3263c.0401.0135.0841.0226.1194.0283v-.0113c-.0416-.0091-.0793-.0091-.1194-.0227zm20.6826 9.8685c-4.7058-4.2501-13.0385-8.1355-20.5632-9.8402l36.173 91.9998-11.3801 23.0016 27.7703-7.961.0629-68.3105-32.0667-28.8931z" fill="#00a8e1"/><path d="M140.728 25.4562L117.5921 4.8107c-5.3968-4.7605-12.6881-6.2471-16.1905-3.285L41.2344 37.2629l93.1874-.0193 4.6217.1511c2.079.0562 4.3892.3983 6.7937.9454l-5.1029-12.8896zM41.2006 37.238" fill="#00c4b3"/></svg>